<?xml version="1.0" encoding="iso-8859-1"?>
<!-- Generator: Adobe Illustrator 16.0.0, SVG Export Plug-In . SVG Version: 6.00 Build 0)  -->
<!DOCTYPE svg PUBLIC "-//W3C//DTD SVG 1.1//EN" "http://www.w3.org/Graphics/SVG/1.1/DTD/svg11.dtd">
<svg version="1.1" id="Capa_1" xmlns="http://www.w3.org/2000/svg" xmlns:xlink="http://www.w3.org/1999/xlink" x="0px" y="0px"
	 width="30px" height="30px" viewBox="0 0 30 30" style="enable-background:new 0 0 30 30;" xml:space="preserve">
<g>
	<g>
		<path d="M26.574,21.678c2.141-2,3.426-4.562,3.426-7.358c0-6.39-6.717-11.569-15-11.569c-8.284,0-15,5.18-15,11.569
			c0,6.389,6.716,11.57,15,11.57c2.615,0,5.076-0.519,7.218-1.427l5.461,2.786L26.574,21.678z M5.704,20.575
			c-2.238-1.727-3.471-3.948-3.471-6.256c0-2.309,1.232-4.53,3.471-6.256c2.455-1.894,5.756-2.937,9.295-2.937
			s6.841,1.043,9.296,2.937c2.236,1.726,3.47,3.947,3.47,6.256c0,2.308-1.231,4.53-3.47,6.256c-2.455,1.894-5.757,2.936-9.296,2.936
			S8.159,22.469,5.704,20.575z"/>
		<g>
			<circle cx="9.679" cy="14.354" r="1.642"/>
			<circle cx="15" cy="14.354" r="1.642"/>
			<circle cx="20.32" cy="14.354" r="1.641"/>
		</g>
	</g>
</g>
<g>
</g>
<g>
</g>
<g>
</g>
<g>
</g>
<g>
</g>
<g>
</g>
<g>
</g>
<g>
</g>
<g>
</g>
<g>
</g>
<g>
</g>
<g>
</g>
<g>
</g>
<g>
</g>
<g>
</g>
</svg>
